<svg version="1.1" id="Layer_1" xmlns="http://www.w3.org/2000/svg" xmlns:xlink="http://www.w3.org/1999/xlink" x="0px" y="0px"
	 width="100%" viewBox="0 0 1024 1024" enable-background="new 0 0 1024 1024" xml:space="preserve">
<path fill="#000000" opacity="1.000000" stroke="none" 
	d="
M678.279480,589.286865 
	C689.901672,555.673828 692.255188,521.823364 680.725403,488.444458 
	C663.634888,438.967316 628.639221,407.877625 578.073608,394.444519 
	C565.953857,391.224823 553.539917,390.117249 540.981140,390.114441 
	C528.711609,390.111725 518.533875,382.837799 515.693115,372.634003 
	C511.102356,356.144348 522.645325,341.050140 540.499451,340.897766 
	C560.257935,340.729065 579.602722,343.944305 598.624023,349.282623 
	C611.645996,352.937286 624.333679,357.471283 636.586853,363.169220 
	C650.385620,369.585876 662.861450,366.813629 674.420898,357.917206 
	C682.193542,351.935211 686.366638,351.995819 692.878479,359.151276 
	C725.453064,394.945892 745.124756,436.793152 751.386108,484.823853 
	C757.883057,534.662231 750.110535,582.053345 726.315063,626.519592 
	C713.054810,651.298889 695.590881,672.757751 674.495483,691.365112 
	C644.335999,717.967651 610.060913,737.026611 571.002136,746.525024 
	C514.271545,760.320923 458.875763,755.665649 405.716095,731.011108 
	C364.832886,712.050110 330.974640,684.335632 305.334290,647.023010 
	C284.597534,616.846191 271.810486,583.534058 266.790527,547.282654 
	C260.637939,502.851807 266.483948,459.952576 284.120514,418.759735 
	C290.617432,403.585236 298.415192,389.027496 308.196564,375.633850 
	C308.883423,374.693359 309.637695,373.799835 310.392670,372.911743 
	C312.354462,370.604004 314.677032,369.591980 317.362091,371.576935 
	C319.920013,373.467896 319.297668,375.816345 318.006287,378.247162 
	C305.240845,402.276428 298.541168,428.238464 295.649292,454.993073 
	C290.718231,500.612366 298.047394,544.318787 319.869110,585.043152 
	C342.316101,626.934570 374.388855,659.183228 417.333557,680.091553 
	C452.304413,697.117676 489.244690,703.728760 527.960938,699.904907 
	C573.481812,695.408936 612.474609,677.187561 644.207886,643.983765 
	C659.267883,628.225891 670.215332,609.877075 678.279480,589.286865 
z"/>
<path fill="#000000" opacity="1.000000" stroke="none" 
	d="
M603.126343,465.873169 
	C586.964966,451.482361 568.226501,443.642639 547.138428,442.644623 
	C511.635040,440.964417 477.804199,463.889923 471.728821,499.191498 
	C471.083069,502.943695 471.254303,506.829620 470.889709,510.638489 
	C469.886597,521.118042 462.564026,527.621704 452.189667,527.347778 
	C442.222839,527.084595 435.331635,519.322083 435.960846,507.910004 
	C437.984222,471.215057 453.837341,442.119080 485.984802,423.705139 
	C523.807556,402.040436 562.837585,403.995148 600.809204,423.131958 
	C634.606628,440.165039 656.763367,467.905701 664.743713,505.059784 
	C674.710144,551.460205 663.136169,593.026306 631.376526,628.308228 
	C604.771545,657.863892 571.013611,674.940979 531.610352,678.973938 
	C466.172760,685.671509 410.450348,665.272461 366.348175,615.708679 
	C337.751587,583.570740 321.591248,545.801392 317.703186,503.003326 
	C312.522675,445.978424 327.265381,394.088928 361.545135,348.556305 
	C394.403687,304.911377 438.993469,278.327972 492.194458,266.822662 
	C543.289368,255.772812 593.190857,261.522034 641.754211,280.265442 
	C648.431091,282.842407 655.103821,285.496094 661.549500,288.591248 
	C672.602051,293.898621 678.209534,305.404297 675.909729,317.145050 
	C673.510620,329.392090 663.076843,339.212280 651.285706,339.934326 
	C646.174561,340.247345 641.529358,338.074615 636.996277,335.946625 
	C604.029846,320.470856 569.244446,313.864441 533.060059,316.524353 
	C485.900330,319.991058 445.424713,338.627075 412.019257,372.441162 
	C384.880859,399.911560 368.861847,432.952179 364.693787,470.988647 
	C358.887177,523.978638 373.166290,570.493286 413.124023,607.702393 
	C455.430145,647.098328 521.180603,657.418518 571.205505,631.737488 
	C605.279175,614.245239 626.861145,586.720764 632.153259,548.501587 
	C636.561890,516.663391 627.790283,488.401215 603.126343,465.873169 
z"/>
<path fill="#000000" opacity="1.000000" stroke="none" 
	d="
M544.856873,507.052307 
	C552.326538,514.661621 553.201355,523.609070 547.474060,531.150879 
	C542.426270,537.797913 533.102722,539.656311 525.495605,535.531677 
	C515.473450,530.097595 513.818237,515.819702 522.659790,507.899048 
	C525.747009,505.133392 526.802307,502.357422 526.730957,498.412292 
	C526.538391,487.769165 526.637085,477.119873 526.695374,466.473480 
	C526.724915,461.077118 529.375427,457.870850 533.589722,457.875702 
	C537.822937,457.880585 540.946960,461.034393 541.046387,466.203827 
	C541.260559,477.345520 541.229858,488.493652 541.152161,499.638092 
	C541.130798,502.704681 541.754700,505.219025 544.856873,507.052307 
M534.391113,524.950195 
	C537.863770,524.467590 539.191467,522.326721 538.705933,519.043213 
	C538.314270,516.395142 536.435303,514.934631 533.917053,514.924072 
	C531.365051,514.913330 529.530701,516.468872 529.195984,519.087524 
	C528.781555,522.329651 530.121948,524.511780 534.391113,524.950195 
z"/>
</svg>